# xmcd CD database file
#
# Track frame offsets:
#	150
#	16563
#	33413
#	49328
#	63655
#	80581
#	99599
#	107923
#	121801
#	152418
#	167255
#	181877
#	194618
#	210113
#	221027
#
# Disc length: 3200 seconds
#
# Revision: 0
# Processed by: cddbd v1.5.2PL0 Copyright (c) Steve Scherf et al.
# Submitted via: CDex 1.79
#
DISCID=bf0c7e0f
DTITLE=Jazz Divas and The City - Jazz Divas and The City [CD4)
DYEAR=2015
DGENRE=Jazz
TTITLE0=Nina Simone - My Baby Just Cares For Me
TTITLE1=Dinah Washington - All Of Me
TTITLE2=Abbe Lane - Aint Misbehavin
TTITLE3=Helen Merrill - Im Just A Lucky So And So
TTITLE4=Annie Ross - Let There Be Love
TTITLE5=Frances Faye - St James Infirmary
TTITLE6=Susan Barrett - Manhattan
TTITLE7=Shirley Horn - I Thought About You
TTITLE8=Billie Holiday - Day In Day Out
TTITLE9=Barbara Lea - I Didnt Know About You
TTITLE10=Anita ODay - Easy Come Easy Go
TTITLE11=Pearl Bailey - Let s Do It_Lets Fall In Love
TTITLE12=The Clark Sisters - Take The A Train
TTITLE13=Eartha Kitt - Lazy Afternoon
TTITLE14=Ottillie Patterson - Jailhouse Blues
EXTD=YEAR: 2015
EXTT0=
EXTT1=
EXTT2=
EXTT3=
EXTT4=
EXTT5=
EXTT6=
EXTT7=
EXTT8=
EXTT9=
EXTT10=
EXTT11=
EXTT12=
EXTT13=
EXTT14=
PLAYORDER=
